<svg xmlns="http://www.w3.org/2000/svg" xmlns:xlink="http://www.w3.org/1999/xlink" version="1.1" width="256" height="256" viewBox="0 0 256 256" xml:space="preserve">
<g style="stroke: none; stroke-width: 0; stroke-dasharray: none; stroke-linecap: butt; stroke-linejoin: miter; stroke-miterlimit: 10; fill: none; fill-rule: nonzero; opacity: 1;" transform="translate(1.4065934065934016 1.4065934065934016) scale(2.81 2.81)">
	<path d="M 87 33.774 H 3 c -1.657 0 -3 -1.343 -3 -3 v -8.511 c 0 -5.098 4.147 -9.245 9.245 -9.245 h 71.51 c 5.098 0 9.245 4.147 9.245 9.245 v 8.511 C 90 32.431 88.657 33.774 87 33.774 z M 6 27.774 h 78 v -5.511 c 0 -1.79 -1.456 -3.245 -3.245 -3.245 H 9.245 C 7.456 19.018 6 20.474 6 22.263 V 27.774 z" style="stroke: none; stroke-width: 1; stroke-dasharray: none; stroke-linecap: butt; stroke-linejoin: miter; stroke-miterlimit: 10; fill: rgb(154,58,193); fill-rule: nonzero; opacity: 1;" transform=" matrix(1 0 0 1 0 0) " stroke-linecap="round"/>
	<path d="M 80.755 83.203 H 9.245 C 4.147 83.203 0 79.056 0 73.958 V 30.774 c 0 -1.657 1.343 -3 3 -3 h 84 c 1.657 0 3 1.343 3 3 v 43.184 C 90 79.056 85.853 83.203 80.755 83.203 z M 6 33.774 v 40.184 c 0 1.789 1.456 3.245 3.245 3.245 h 71.51 c 1.789 0 3.245 -1.456 3.245 -3.245 V 33.774 H 6 z" style="stroke: none; stroke-width: 1; stroke-dasharray: none; stroke-linecap: butt; stroke-linejoin: miter; stroke-miterlimit: 10; fill: rgb(154,58,193); fill-rule: nonzero; opacity: 1;" transform=" matrix(1 0 0 1 0 0) " stroke-linecap="round"/>
	<path d="M 20.729 24.241 c -1.657 0 -3 -1.343 -3 -3 V 10.796 c 0 -1.657 1.343 -3 3 -3 s 3 1.343 3 3 v 10.444 C 23.729 22.897 22.385 24.241 20.729 24.241 z" style="stroke: none; stroke-width: 1; stroke-dasharray: none; stroke-linecap: butt; stroke-linejoin: miter; stroke-miterlimit: 10; fill: rgb(154,58,193); fill-rule: nonzero; opacity: 1;" transform=" matrix(1 0 0 1 0 0) " stroke-linecap="round"/>
	<path d="M 69.271 24.241 c -1.657 0 -3 -1.343 -3 -3 V 10.796 c 0 -1.657 1.343 -3 3 -3 s 3 1.343 3 3 v 10.444 C 72.271 22.897 70.929 24.241 69.271 24.241 z" style="stroke: none; stroke-width: 1; stroke-dasharray: none; stroke-linecap: butt; stroke-linejoin: miter; stroke-miterlimit: 10; fill: rgb(154,58,193); fill-rule: nonzero; opacity: 1;" transform=" matrix(1 0 0 1 0 0) " stroke-linecap="round"/>
	<path d="M 17.179 47.086 h -2.148 c -1.064 0 -1.926 -0.862 -1.926 -1.926 v -2.148 c 0 -1.064 0.862 -1.926 1.926 -1.926 h 2.148 c 1.064 0 1.926 0.862 1.926 1.926 v 2.148 C 19.105 46.224 18.243 47.086 17.179 47.086 z" style="stroke: none; stroke-width: 1; stroke-dasharray: none; stroke-linecap: butt; stroke-linejoin: miter; stroke-miterlimit: 10; fill: rgb(154,58,193); fill-rule: nonzero; opacity: 1;" transform=" matrix(1 0 0 1 0 0) " stroke-linecap="round"/>
	<path d="M 28.737 47.086 h -2.148 c -1.064 0 -1.926 -0.862 -1.926 -1.926 v -2.148 c 0 -1.064 0.862 -1.926 1.926 -1.926 h 2.148 c 1.064 0 1.926 0.862 1.926 1.926 v 2.148 C 30.663 46.224 29.801 47.086 28.737 47.086 z" style="stroke: none; stroke-width: 1; stroke-dasharray: none; stroke-linecap: butt; stroke-linejoin: miter; stroke-miterlimit: 10; fill: rgb(154,58,193); fill-rule: nonzero; opacity: 1;" transform=" matrix(1 0 0 1 0 0) " stroke-linecap="round"/>
	<path d="M 40.295 47.086 h -2.148 c -1.064 0 -1.926 -0.862 -1.926 -1.926 v -2.148 c 0 -1.064 0.862 -1.926 1.926 -1.926 h 2.148 c 1.064 0 1.926 0.862 1.926 1.926 v 2.148 C 42.221 46.224 41.359 47.086 40.295 47.086 z" style="stroke: none; stroke-width: 1; stroke-dasharray: none; stroke-linecap: butt; stroke-linejoin: miter; stroke-miterlimit: 10; fill: rgb(154,58,193); fill-rule: nonzero; opacity: 1;" transform=" matrix(1 0 0 1 0 0) " stroke-linecap="round"/>
	<path d="M 51.853 47.086 h -2.148 c -1.064 0 -1.926 -0.862 -1.926 -1.926 v -2.148 c 0 -1.064 0.862 -1.926 1.926 -1.926 h 2.148 c 1.064 0 1.926 0.862 1.926 1.926 v 2.148 C 53.779 46.224 52.917 47.086 51.853 47.086 z" style="stroke: none; stroke-width: 1; stroke-dasharray: none; stroke-linecap: butt; stroke-linejoin: miter; stroke-miterlimit: 10; fill: rgb(154,58,193); fill-rule: nonzero; opacity: 1;" transform=" matrix(1 0 0 1 0 0) " stroke-linecap="round"/>
	<path d="M 63.411 47.086 h -2.148 c -1.064 0 -1.926 -0.862 -1.926 -1.926 v -2.148 c 0 -1.064 0.862 -1.926 1.926 -1.926 h 2.148 c 1.064 0 1.926 0.862 1.926 1.926 v 2.148 C 65.337 46.224 64.475 47.086 63.411 47.086 z" style="stroke: none; stroke-width: 1; stroke-dasharray: none; stroke-linecap: butt; stroke-linejoin: miter; stroke-miterlimit: 10; fill: rgb(154,58,193); fill-rule: nonzero; opacity: 1;" transform=" matrix(1 0 0 1 0 0) " stroke-linecap="round"/>
	<path d="M 74.969 47.086 h -2.148 c -1.064 0 -1.926 -0.862 -1.926 -1.926 v -2.148 c 0 -1.064 0.862 -1.926 1.926 -1.926 h 2.148 c 1.064 0 1.926 0.862 1.926 1.926 v 2.148 C 76.895 46.224 76.032 47.086 74.969 47.086 z" style="stroke: none; stroke-width: 1; stroke-dasharray: none; stroke-linecap: butt; stroke-linejoin: miter; stroke-miterlimit: 10; fill: rgb(154,58,193); fill-rule: nonzero; opacity: 1;" transform=" matrix(1 0 0 1 0 0) " stroke-linecap="round"/>
	<path d="M 17.179 58.644 h -2.148 c -1.064 0 -1.926 -0.862 -1.926 -1.926 V 54.57 c 0 -1.064 0.862 -1.926 1.926 -1.926 h 2.148 c 1.064 0 1.926 0.862 1.926 1.926 v 2.148 C 19.105 57.781 18.243 58.644 17.179 58.644 z" style="stroke: none; stroke-width: 1; stroke-dasharray: none; stroke-linecap: butt; stroke-linejoin: miter; stroke-miterlimit: 10; fill: rgb(154,58,193); fill-rule: nonzero; opacity: 1;" transform=" matrix(1 0 0 1 0 0) " stroke-linecap="round"/>
	<path d="M 28.737 58.644 h -2.148 c -1.064 0 -1.926 -0.862 -1.926 -1.926 V 54.57 c 0 -1.064 0.862 -1.926 1.926 -1.926 h 2.148 c 1.064 0 1.926 0.862 1.926 1.926 v 2.148 C 30.663 57.781 29.801 58.644 28.737 58.644 z" style="stroke: none; stroke-width: 1; stroke-dasharray: none; stroke-linecap: butt; stroke-linejoin: miter; stroke-miterlimit: 10; fill: rgb(154,58,193); fill-rule: nonzero; opacity: 1;" transform=" matrix(1 0 0 1 0 0) " stroke-linecap="round"/>
	<path d="M 40.295 58.644 h -2.148 c -1.064 0 -1.926 -0.862 -1.926 -1.926 V 54.57 c 0 -1.064 0.862 -1.926 1.926 -1.926 h 2.148 c 1.064 0 1.926 0.862 1.926 1.926 v 2.148 C 42.221 57.781 41.359 58.644 40.295 58.644 z" style="stroke: none; stroke-width: 1; stroke-dasharray: none; stroke-linecap: butt; stroke-linejoin: miter; stroke-miterlimit: 10; fill: rgb(154,58,193); fill-rule: nonzero; opacity: 1;" transform=" matrix(1 0 0 1 0 0) " stroke-linecap="round"/>
	<path d="M 51.853 58.644 h -2.148 c -1.064 0 -1.926 -0.862 -1.926 -1.926 V 54.57 c 0 -1.064 0.862 -1.926 1.926 -1.926 h 2.148 c 1.064 0 1.926 0.862 1.926 1.926 v 2.148 C 53.779 57.781 52.917 58.644 51.853 58.644 z" style="stroke: none; stroke-width: 1; stroke-dasharray: none; stroke-linecap: butt; stroke-linejoin: miter; stroke-miterlimit: 10; fill: rgb(154,58,193); fill-rule: nonzero; opacity: 1;" transform=" matrix(1 0 0 1 0 0) " stroke-linecap="round"/>
	<path d="M 63.411 58.644 h -2.148 c -1.064 0 -1.926 -0.862 -1.926 -1.926 V 54.57 c 0 -1.064 0.862 -1.926 1.926 -1.926 h 2.148 c 1.064 0 1.926 0.862 1.926 1.926 v 2.148 C 65.337 57.781 64.475 58.644 63.411 58.644 z" style="stroke: none; stroke-width: 1; stroke-dasharray: none; stroke-linecap: butt; stroke-linejoin: miter; stroke-miterlimit: 10; fill: rgb(154,58,193); fill-rule: nonzero; opacity: 1;" transform=" matrix(1 0 0 1 0 0) " stroke-linecap="round"/>
	<path d="M 74.969 58.644 h -2.148 c -1.064 0 -1.926 -0.862 -1.926 -1.926 V 54.57 c 0 -1.064 0.862 -1.926 1.926 -1.926 h 2.148 c 1.064 0 1.926 0.862 1.926 1.926 v 2.148 C 76.895 57.781 76.032 58.644 74.969 58.644 z" style="stroke: none; stroke-width: 1; stroke-dasharray: none; stroke-linecap: butt; stroke-linejoin: miter; stroke-miterlimit: 10; fill: rgb(154,58,193); fill-rule: nonzero; opacity: 1;" transform=" matrix(1 0 0 1 0 0) " stroke-linecap="round"/>
	<path d="M 17.179 70.202 h -2.148 c -1.064 0 -1.926 -0.862 -1.926 -1.926 v -2.148 c 0 -1.064 0.862 -1.926 1.926 -1.926 h 2.148 c 1.064 0 1.926 0.862 1.926 1.926 v 2.148 C 19.105 69.339 18.243 70.202 17.179 70.202 z" style="stroke: none; stroke-width: 1; stroke-dasharray: none; stroke-linecap: butt; stroke-linejoin: miter; stroke-miterlimit: 10; fill: rgb(154,58,193); fill-rule: nonzero; opacity: 1;" transform=" matrix(1 0 0 1 0 0) " stroke-linecap="round"/>
	<path d="M 28.737 70.202 h -2.148 c -1.064 0 -1.926 -0.862 -1.926 -1.926 v -2.148 c 0 -1.064 0.862 -1.926 1.926 -1.926 h 2.148 c 1.064 0 1.926 0.862 1.926 1.926 v 2.148 C 30.663 69.339 29.801 70.202 28.737 70.202 z" style="stroke: none; stroke-width: 1; stroke-dasharray: none; stroke-linecap: butt; stroke-linejoin: miter; stroke-miterlimit: 10; fill: rgb(154,58,193); fill-rule: nonzero; opacity: 1;" transform=" matrix(1 0 0 1 0 0) " stroke-linecap="round"/>
	<path d="M 40.295 70.202 h -2.148 c -1.064 0 -1.926 -0.862 -1.926 -1.926 v -2.148 c 0 -1.064 0.862 -1.926 1.926 -1.926 h 2.148 c 1.064 0 1.926 0.862 1.926 1.926 v 2.148 C 42.221 69.339 41.359 70.202 40.295 70.202 z" style="stroke: none; stroke-width: 1; stroke-dasharray: none; stroke-linecap: butt; stroke-linejoin: miter; stroke-miterlimit: 10; fill: rgb(154,58,193); fill-rule: nonzero; opacity: 1;" transform=" matrix(1 0 0 1 0 0) " stroke-linecap="round"/>
	<path d="M 51.853 70.202 h -2.148 c -1.064 0 -1.926 -0.862 -1.926 -1.926 v -2.148 c 0 -1.064 0.862 -1.926 1.926 -1.926 h 2.148 c 1.064 0 1.926 0.862 1.926 1.926 v 2.148 C 53.779 69.339 52.917 70.202 51.853 70.202 z" style="stroke: none; stroke-width: 1; stroke-dasharray: none; stroke-linecap: butt; stroke-linejoin: miter; stroke-miterlimit: 10; fill: rgb(154,58,193); fill-rule: nonzero; opacity: 1;" transform=" matrix(1 0 0 1 0 0) " stroke-linecap="round"/>
	<path d="M 63.411 70.202 h -2.148 c -1.064 0 -1.926 -0.862 -1.926 -1.926 v -2.148 c 0 -1.064 0.862 -1.926 1.926 -1.926 h 2.148 c 1.064 0 1.926 0.862 1.926 1.926 v 2.148 C 65.337 69.339 64.475 70.202 63.411 70.202 z" style="stroke: none; stroke-width: 1; stroke-dasharray: none; stroke-linecap: butt; stroke-linejoin: miter; stroke-miterlimit: 10; fill: rgb(154,58,193); fill-rule: nonzero; opacity: 1;" transform=" matrix(1 0 0 1 0 0) " stroke-linecap="round"/>
</g>
</svg>